<svg width="17" height="12" viewBox="0 0 17 12" fill="none" xmlns="http://www.w3.org/2000/svg">
<path d="M6.11524 8.9189C7.53508 7.69308 9.6153 7.69313 11.0352 8.9189C11.1066 8.98484 11.1484 9.07842 11.1504 9.17671C11.1523 9.27498 11.1137 9.36958 11.0449 9.43843L8.82227 11.7285C8.7571 11.7958 8.66791 11.8339 8.5752 11.8339C8.48252 11.8339 8.39328 11.7958 8.32813 11.7285L6.1045 9.43843C6.03602 9.36957 5.99801 9.27482 6 9.17671C6.00204 9.07843 6.04377 8.98478 6.11524 8.9189ZM3.10938 6.17867C6.16846 3.27407 10.9067 3.27407 13.9658 6.17867C14.0347 6.24675 14.0742 6.34059 14.0752 6.43843C14.0761 6.53631 14.0383 6.63071 13.9707 6.70015L12.6856 8.02535C12.5532 8.16063 12.339 8.16374 12.2031 8.03218C11.1986 7.10366 9.89135 6.58971 8.53614 6.5898C7.18188 6.59041 5.87593 7.10431 4.87208 8.03218C4.73619 8.16374 4.52203 8.16063 4.38965 8.02535L3.10547 6.70015C3.03772 6.63079 2.99918 6.53637 3 6.43843C3.00091 6.34056 3.04051 6.24675 3.10938 6.17867ZM0.107427 3.44234C4.79934 -1.14745 12.2016 -1.14745 16.8936 3.44234C16.9614 3.51052 16.9994 3.60393 17 3.70113C17.0005 3.79822 16.9635 3.89199 16.8965 3.96089L15.6094 5.28609C15.4768 5.42194 15.2615 5.42387 15.127 5.28999C13.3394 3.55529 10.9675 2.58799 8.50098 2.58785C6.03421 2.58784 3.66186 3.55514 1.87403 5.28999C1.73956 5.42407 1.52411 5.42215 1.39161 5.28609L0.104497 3.96089C0.0375279 3.89196 -0.000493866 3.79819 4.82798e-06 3.70113C0.000631276 3.60393 0.0395161 3.51047 0.107427 3.44234Z" fill="black"/>
</svg>
