<svg width="20" height="20" viewBox="0 0 20 20" fill="none" xmlns="http://www.w3.org/2000/svg">
<path d="M10.0002 10.0001C10.4585 10.0001 10.8509 9.83689 11.1772 9.5105C11.5036 9.18411 11.6668 8.79175 11.6668 8.33341C11.6668 7.87508 11.5036 7.48272 11.1772 7.15633C10.8509 6.82994 10.4585 6.66675 10.0002 6.66675C9.54183 6.66675 9.14947 6.82994 8.82308 7.15633C8.49669 7.48272 8.3335 7.87508 8.3335 8.33341C8.3335 8.79175 8.49669 9.18411 8.82308 9.5105C9.14947 9.83689 9.54183 10.0001 10.0002 10.0001ZM10.0002 16.1251C11.6946 14.5695 12.9516 13.1563 13.771 11.8855C14.5904 10.6147 15.0002 9.48619 15.0002 8.50008C15.0002 6.98619 14.5175 5.74661 13.5522 4.78133C12.587 3.81605 11.4029 3.33341 10.0002 3.33341C8.59738 3.33341 7.41336 3.81605 6.44808 4.78133C5.4828 5.74661 5.00016 6.98619 5.00016 8.50008C5.00016 9.48619 5.40989 10.6147 6.22933 11.8855C7.04877 13.1563 8.30572 14.5695 10.0002 16.1251ZM10.0002 18.3334C7.76405 16.4306 6.09391 14.6633 4.98975 13.0313C3.88558 11.3994 3.3335 9.88897 3.3335 8.50008C3.3335 6.41675 4.00363 4.75703 5.34391 3.52091C6.68419 2.2848 8.23627 1.66675 10.0002 1.66675C11.7641 1.66675 13.3161 2.2848 14.6564 3.52091C15.9967 4.75703 16.6668 6.41675 16.6668 8.50008C16.6668 9.88897 16.1147 11.3994 15.0106 13.0313C13.9064 14.6633 12.2363 16.4306 10.0002 18.3334Z" fill="#E9E9E9"/>
</svg>
