<svg width="20" height="20" viewBox="0 0 20 20" fill="none" xmlns="http://www.w3.org/2000/svg">
<path d="M10.0007 10.0001C10.459 10.0001 10.8513 9.83689 11.1777 9.5105C11.5041 9.18411 11.6673 8.79175 11.6673 8.33341C11.6673 7.87508 11.5041 7.48272 11.1777 7.15633C10.8513 6.82994 10.459 6.66675 10.0007 6.66675C9.54232 6.66675 9.14996 6.82994 8.82357 7.15633C8.49718 7.48272 8.33398 7.87508 8.33398 8.33341C8.33398 8.79175 8.49718 9.18411 8.82357 9.5105C9.14996 9.83689 9.54232 10.0001 10.0007 10.0001ZM10.0007 16.1251C11.6951 14.5695 12.952 13.1563 13.7715 11.8855C14.5909 10.6147 15.0007 9.48619 15.0007 8.50008C15.0007 6.98619 14.518 5.74661 13.5527 4.78133C12.5875 3.81605 11.4034 3.33341 10.0007 3.33341C8.59787 3.33341 7.41385 3.81605 6.44857 4.78133C5.48329 5.74661 5.00065 6.98619 5.00065 8.50008C5.00065 9.48619 5.41037 10.6147 6.22982 11.8855C7.04926 13.1563 8.30621 14.5695 10.0007 16.1251ZM10.0007 18.3334C7.76454 16.4306 6.0944 14.6633 4.99023 13.0313C3.88607 11.3994 3.33398 9.88897 3.33398 8.50008C3.33398 6.41675 4.00412 4.75703 5.3444 3.52091C6.68468 2.2848 8.23676 1.66675 10.0007 1.66675C11.7645 1.66675 13.3166 2.2848 14.6569 3.52091C15.9972 4.75703 16.6673 6.41675 16.6673 8.50008C16.6673 9.88897 16.1152 11.3994 15.0111 13.0313C13.9069 14.6633 12.2368 16.4306 10.0007 18.3334Z" fill="#E9E9E9"/>
</svg>
