<svg width="20" height="20" viewBox="0 0 20 20" fill="none" xmlns="http://www.w3.org/2000/svg">
<path d="M8.83333 16.35L4.88889 12.8L6.5 11.35L8.83333 13.45L13.5 9.25L15.1111 10.7L8.83333 16.35ZM2.22222 20C1.61111 20 1.08796 19.8042 0.652778 19.4125C0.217593 19.0208 0 18.55 0 18V4C0 3.45 0.217593 2.97917 0.652778 2.5875C1.08796 2.19583 1.61111 2 2.22222 2H3.33333V0H5.55556V2H14.4444V0H16.6667V2H17.7778C18.3889 2 18.912 2.19583 19.3472 2.5875C19.7824 2.97917 20 3.45 20 4V18C20 18.55 19.7824 19.0208 19.3472 19.4125C18.912 19.8042 18.3889 20 17.7778 20H2.22222ZM2.22222 18H17.7778V8H2.22222V18ZM2.22222 6H17.7778V4H2.22222V6Z" fill="black"/>
</svg>
